<?xml version="1.0" standalone="no"?><!DOCTYPE svg PUBLIC "-//W3C//DTD SVG 1.1//EN" "http://www.w3.org/Graphics/SVG/1.1/DTD/svg11.dtd"><svg t="1576572023879" class="icon" viewBox="0 0 1024 1024" version="1.1" xmlns="http://www.w3.org/2000/svg" p-id="2263" width="48" height="48" xmlns:xlink="http://www.w3.org/1999/xlink"><defs><style type="text/css"></style></defs><path d="M508.61589 1023.452932c-144.678575 0-276.774575-66.048-364.835068-169.831453 12.575562-31.456438 28.303781-66.05326 50.323288-84.921863C241.28 730.957151 382.807671 668.054795 382.807671 668.054795l88.065754 169.836712 15.722959-40.886356-25.161644-50.325041 50.325041-50.312768 50.321534 50.312768-22.014247 53.470685 12.582576 40.888109 91.206137-166.692822s141.527671 62.902356 188.707068 100.646576c22.014247 15.721205 37.740712 44.032 47.172384 69.184876-84.914849 110.083507-220.156493 179.275397-371.121096 179.275398z" p-id="2264" fill="#d4237a"></path><path d="M595.185973 660.972712c-37.158575 10.269808-64.89074 15.403836-83.19474 15.403836-20.099507 0-49.972603-5.134027-89.621041-15.403836-16.273534-5.055123-32.12274-11.507726-47.274082-19.356054-26.513534-13.753863-51.061479-31.561644-72.239343-52.60274-22.862904-22.726137-42.082192-49.239671-56.25337-78.137863a72.334027 72.334027 0 0 1-30.856767 6.876931C176.047342 517.752986 143.780822 485.630247 143.780822 446.211507c0-39.416986 32.266521-71.539726 73.507068-74.204932H184.321753c-10.801096 0-19.636603-8.69874-19.636602-19.499835v-52.041644c0-10.801096 8.835507-19.499836 19.636602-19.499836H221.492603C241.27474 169.452712 326.561315 78.411397 436.814904 50.500384v-31.000548C436.814904 8.69874 445.650411 0 456.451507 0H561.09589c10.801096 0 19.643616 8.69874 19.643617 19.499836v31.000548C690.993096 78.27463 776.137644 169.308932 796.054795 280.96526h37.31463c10.802849 0 19.638356 8.69874 19.638356 19.499836v52.041644c0 10.801096-8.835507 19.499836-19.638356 19.499835-21.880986 1.215123-32.352438 2.10411-31.417863 2.665206 39.692274 0 71.958795 32.12274 71.958794 71.539726 0 39.41874-32.266521 71.541479-71.958794 71.541479-10.801096 0-21.321644-2.382904-30.862028-6.876931a296.062247 296.062247 0 0 1-30.439452 48.815342c-18.095342 23.569534-39.978082 44.466849-64.382246 61.582028-24.828493 17.253699-52.185425 30.72-81.081863 39.699287z m-119.232877-380.007452h65.506192v-241.972602h-65.506192v241.972602z m285.176986 98.898411c-4.348493 1.821808-8.554959 3.506849-12.903452 5.191891v78.546411a250.445151 250.445151 0 0 0 13.040219-79.814137c0-1.260712-0.136767-2.665205-0.136767-3.924165zM256 383.787836c0 27.918027 4.630795 54.848877 13.192767 79.814137v-78.546411c-4.350247-1.685041-8.69874-3.370082-13.048986-5.191891 0 1.258959-0.143781 2.663452-0.143781 3.924165z m403.287671-11.644494H357.979178c48.959123 12.068822 99.315726 18.240877 150.657754 18.240877s101.69863-6.172055 150.650739-18.240877z m-350.821698 164.54137c46.150137 59.760219 118.815562 98.191781 200.307726 98.191781 81.500932 0 154.020822-38.431562 200.314739-98.191781v-137.884054c-64.526027 20.336219-131.575233 30.576219-200.314739 30.576219-68.732493 0-135.923726-10.24-200.307726-30.576219v137.884054z m526.027397-90.334685c0-17.953315-14.588493-32.541808-32.822356-32.541808-0.841644 0-1.828822 0-2.807233 0.136767-2.10411 20.904329-6.58937 41.247562-13.048986 60.740384 4.911342 2.807233 10.383781 4.211726 15.992986 4.211726 17.960329 0 32.685589-14.588493 32.685589-32.547069z m-619.027288 32.403288c5.745973 0 11.081644-1.404493 15.849206-4.204712-6.452603-19.356055-10.801096-39.699288-13.047233-60.740384-0.843397-0.136767-1.821808-0.136767-2.801973-0.136767-17.958575 0-32.685589 14.581479-32.685589 32.540055 0 17.953315 14.590247 32.541808 32.685589 32.541808z" p-id="2265" fill="#d4237a"></path></svg>