<?xml version="1.0" standalone="no"?><!DOCTYPE svg PUBLIC "-//W3C//DTD SVG 1.1//EN" "http://www.w3.org/Graphics/SVG/1.1/DTD/svg11.dtd"><svg t="1599553927014" class="icon" viewBox="0 0 1024 1024" version="1.1" xmlns="http://www.w3.org/2000/svg" p-id="8859" xmlns:xlink="http://www.w3.org/1999/xlink" width="32" height="32"><defs><style type="text/css"></style></defs><path d="M984.05 466.76c-22.07 0-40.04-18.14-40.04-40.45V213.6L561.76 642.89 278.53 377.82 69.7 612.37c-7.55 8.53-18.37 13.42-29.69 13.42-9.93 0-19.44-3.72-26.79-10.46C5.28 608.15 0.64 598.27 0.06 587.5c-0.55-10.78 3.07-21.14 10.2-29.17l263.16-295.49L556.6 527.92l337.65-379.18H700.69c-22.03 0-39.95-18.13-39.95-40.43 0-22.29 17.93-40.43 39.95-40.43H984c2.73 0 4.97 0.63 6.05 0.92l0.48 0.14 0.53 0.08c2.34 0.32 4.64 0.69 7.18 1.67 3.15 1.26 5.43 2.83 7.1 3.97l0.68 0.42c1.7 0.91 3.22 1.8 4.92 3.39l3.24 3.54c0.53 0.74 1.33 1.95 2.52 3.81l0.46 0.68c1.08 1.48 2.32 3.17 3.29 5.43 1.06 2.38 1.48 4.68 1.66 5.65l0.2 0.83c0.8 3.08 1.46 5.76 1.52 8.85l0.16 319.07c0.01 22.29-17.91 40.43-39.94 40.43zM40.01 875.25h944.04c22.03 0 39.95 18.18 39.95 40.49 0 22.27-17.92 40.38-39.95 40.38H40.01c-22.07 0-39.99-18.11-39.99-40.38 0-22.31 17.91-40.49 39.99-40.49z m0 0" p-id="8860" fill="#d1a964"></path></svg>