<?xml version="1.0" standalone="no"?><!DOCTYPE svg PUBLIC "-//W3C//DTD SVG 1.1//EN" "http://www.w3.org/Graphics/SVG/1.1/DTD/svg11.dtd"><svg t="1599553977989" class="icon" viewBox="0 0 1024 1024" version="1.1" xmlns="http://www.w3.org/2000/svg" p-id="9722" data-spm-anchor-id="a313x.7781069.0.i12" xmlns:xlink="http://www.w3.org/1999/xlink" width="32" height="32"><defs><style type="text/css"></style></defs><path d="M511.99789209 37.74220833C250.05941339 37.74220833 37.72429108 250.07416877 37.72429108 512c0 261.92793915 212.33723022 474.25673772 474.27360101 474.25673772 261.93742475 0 474.27676287-212.32879857 474.27676286-474.25673772 0-261.92688519-212.34039209-474.25779167-474.27676286-474.25779167z m0 905.40143027C273.87037353 943.1436386 80.8373902 750.09906177 80.8373902 512c0-238.14016603 193.03298333-431.14258465 431.16050189-431.14258465S943.15734002 273.86194188 943.15734002 512c0 238.0958999-193.03298333 431.1436386-431.15944793 431.1436386z m237.13890841-431.14153069H533.55338769V231.75853203c0-11.91391171-9.66055509-21.55654956-21.55654956-21.55654956-11.89494051 0-21.55760351 9.64052994-21.55760351 21.55654956v301.79801753c0 11.89494051 9.66477091 21.55654956 21.55760351 21.55654955h237.13890842c11.89388656 0 21.55760351-9.662663 21.55760351-21.55654955-0.00210791-11.9118038-9.66477091-21.55549561-21.55760351-21.55549561z" p-id="9723" fill="#d1a964"></path></svg>